<svg viewBox="0 0 129.969 75.306" xmlns:xlink="http://www.w3.org/1999/xlink" xmlns="http://www.w3.org/2000/svg">
  <defs>
    <linearGradient id="b">
      <stop offset="0" stop-color="#5119de"/>
      <stop offset="1" stop-color="#a191e9"/>
    </linearGradient>
    <linearGradient id="a">
      <stop offset="0" stop-color="#000014"/>
      <stop offset="1" stop-color="#000014" stop-opacity="0"/>
    </linearGradient>
    <linearGradient xlinkHref="#a" id="c" x1="27.563" y1="138.974" x2="183.648" y2="138.974" gradientUnits="userSpaceOnUse"/>
    <linearGradient xlinkHref="#b" id="d" gradientUnits="userSpaceOnUse" x1="511.931" y1="498.892" x2="188.965" y2="238.827"/>
  </defs>
  <g transform="translate(-95.979 -105.81)">
    <path d="M264.717 182.96A146.583 146.583 0 00118.49 321.853a80.364 80.364 0 00-.332-.022 80.364 80.364 0 00-80.363 80.363 80.364 80.364 0 0078.41 80.235v.129H572.67v-.15a56.255 56.255 0 0055.053-56.16 56.255 56.255 0 00-56.254-56.257 56.255 56.255 0 00-11.84 1.422 119.581 119.581 0 00.826-13.58 119.581 119.581 0 00-119.58-119.58 119.581 119.581 0 00-52.705 12.41 146.583 146.583 0 00-123.453-67.701z" transform="matrix(-.1846 0 0 .2015 221.996 76.41)" fill="url(#d)"/>
    <path d="M187.153 132.812c-19.942 3.52-32.589 5.728-51.012 8.272 5.485 1.542 8.202 3.655 9.203 8.733a944.615 944.615 0 0025.486-9.024c-6.017 3.698-13.827 6.559-23.764 11.583 4.736 2.963 6.016 7.017 5.98 13.501 13.032-12.423 21.985-21.82 34.107-33.065z" fill="#fff"/>
    <rect width=".265" height="2.117" x="198.803" y="91.413" rx="6.676" fill="#fff"/>
  </g>
</svg>
